<svg width="1993" height="1369" viewBox="0 0 1993 1369" fill="none" xmlns="http://www.w3.org/2000/svg">
<path opacity="0.37" d="M20.0979 1318.21V388.077C191.541 284.729 531.49 377.573 720.949 387.327C826.302 395.017 1152.54 321.961 1213.25 317.178C1338.97 298.609 1407.21 366.789 1518.63 382.919C1607.34 393.329 1842.92 315.959 1900 317.553V1265.22C1900 1265.31 1899.9 1265.41 1899.9 1265.5C1853.98 1298.23 1662.07 1328.62 1463.9 1289.98C1131.79 1222.83 995.591 1293.17 887.986 1302.36C756.099 1315.21 646.732 1362.1 538.05 1302.36C424.864 1230.52 261.254 1284.07 205.934 1299.26C163.832 1311.74 63.4727 1336.96 20 1325.15V1318.21H20.0979Z" fill="#2551B8"/>
<path opacity="0.37" d="M0.1 1353.79V361.989C175.2 251.789 522.4 350.789 715.9 361.189C823.5 369.389 1156.7 291.488 1218.7 286.388C1347.1 266.588 1416.8 339.289 1530.6 356.489C1621.2 367.589 1861.8 285.089 1920.1 286.789V1297.29C1920.1 1297.39 1920 1297.49 1920 1297.59C1873.1 1332.49 1677.1 1364.89 1474.7 1323.69C1135.5 1252.09 996.4 1327.09 886.5 1336.89C751.8 1350.59 640.1 1400.59 529.1 1336.89C413.5 1260.29 246.4 1317.39 189.9 1333.59C146.9 1346.89 44.4 1373.79 0 1361.19V1353.79H0.1Z" fill="#C061ED"/>
<g opacity="0.09">
<g opacity="0.09">
<path opacity="0.09" d="M747.9 839.815C747.9 843.415 745 846.315 741.4 846.315C737.8 846.315 734.9 843.415 734.9 839.815C734.9 836.215 737.8 833.315 741.4 833.315C745 833.415 747.9 836.215 747.9 839.815Z" fill="white"/>
<path opacity="0.09" d="M582 435.315C582 438.915 579.1 441.815 575.5 441.815C571.9 441.815 569 438.915 569 435.315C569 431.715 571.9 428.815 575.5 428.815C579.1 428.915 582 431.815 582 435.315Z" fill="white"/>
<path opacity="0.09" d="M741.4 717.615C741.4 721.215 738.5 724.115 734.9 724.115C731.3 724.115 728.4 721.215 728.4 717.615C728.4 714.015 731.3 711.115 734.9 711.115C738.5 711.115 741.4 714.015 741.4 717.615Z" fill="white"/>
<path opacity="0.09" d="M827.5 871.015C830.041 871.015 832.1 868.956 832.1 866.416C832.1 863.875 830.041 861.815 827.5 861.815C824.96 861.815 822.9 863.875 822.9 866.416C822.9 868.956 824.96 871.015 827.5 871.015Z" fill="white"/>
<path opacity="0.09" d="M646.3 797.916C646.3 800.416 644.3 802.515 641.7 802.515C639.1 802.515 637.1 800.516 637.1 797.916C637.1 795.416 639.1 793.315 641.7 793.315C644.3 793.315 646.3 795.416 646.3 797.916Z" fill="white"/>
<path opacity="0.09" d="M867.5 543.015C870.041 543.015 872.1 540.956 872.1 538.416C872.1 535.875 870.041 533.815 867.5 533.815C864.96 533.815 862.9 535.875 862.9 538.416C862.9 540.956 864.96 543.015 867.5 543.015Z" fill="white"/>
<path opacity="0.09" d="M875.5 732.115C875.5 734.615 873.5 736.715 870.9 736.715C868.4 736.715 866.3 734.715 866.3 732.115C866.3 729.615 868.3 727.515 870.9 727.515C873.5 727.515 875.5 729.615 875.5 732.115Z" fill="white"/>
<path opacity="0.09" d="M611.8 744.315C611.8 746.215 610.3 747.715 608.4 747.715C606.5 747.715 605 746.215 605 744.315C605 742.415 606.5 740.916 608.4 740.916C610.3 740.916 611.8 742.415 611.8 744.315Z" fill="white"/>
<path opacity="0.09" d="M755.6 814.416C755.6 815.616 754.6 816.615 753.4 816.615C752.2 816.615 751.2 815.616 751.2 814.416C751.2 813.216 752.2 812.215 753.4 812.215C754.7 812.215 755.6 813.216 755.6 814.416Z" fill="white"/>
<path opacity="0.09" d="M629.8 797.916C631.015 797.916 632 796.93 632 795.715C632 794.5 631.015 793.515 629.8 793.515C628.585 793.515 627.6 794.5 627.6 795.715C627.6 796.93 628.585 797.916 629.8 797.916Z" fill="white"/>
<path opacity="0.09" d="M632 848.515C633.215 848.515 634.2 847.53 634.2 846.315C634.2 845.1 633.215 844.115 632 844.115C630.785 844.115 629.8 845.1 629.8 846.315C629.8 847.53 630.785 848.515 632 848.515Z" fill="white"/>
<path opacity="0.09" d="M661.7 833.416C661.7 834.616 660.7 835.615 659.5 835.615C658.3 835.615 657.3 834.616 657.3 833.416C657.3 832.216 658.3 831.215 659.5 831.215C660.8 831.215 661.7 832.216 661.7 833.416Z" fill="white"/>
<path opacity="0.09" d="M604.2 842.815C604.2 844.015 603.2 845.015 602 845.015C600.8 845.015 599.8 844.015 599.8 842.815C599.8 841.615 600.8 840.615 602 840.615C603.2 840.715 604.2 841.615 604.2 842.815Z" fill="white"/>
<path opacity="0.09" d="M772.6 677.615C773.815 677.615 774.8 676.631 774.8 675.416C774.8 674.201 773.815 673.215 772.6 673.215C771.385 673.215 770.4 674.201 770.4 675.416C770.4 676.631 771.385 677.615 772.6 677.615Z" fill="white"/>
<path opacity="0.09" d="M669.7 799.015C669.7 799.615 669.2 800.115 668.6 800.115C668 800.115 667.5 799.615 667.5 799.015C667.5 798.415 668 797.916 668.6 797.916C669.2 797.916 669.7 798.415 669.7 799.015Z" fill="white"/>
<path opacity="0.09" d="M653.5 816.515C653.5 817.115 653 817.615 652.4 817.615C651.8 817.615 651.3 817.115 651.3 816.515C651.3 815.915 651.8 815.416 652.4 815.416C653.1 815.516 653.5 815.915 653.5 816.515Z" fill="white"/>
<path opacity="0.09" d="M661.7 781.615C661.7 782.815 660.7 783.815 659.5 783.815C658.3 783.815 657.3 782.815 657.3 781.615C657.3 780.415 658.3 779.416 659.5 779.416C660.8 779.516 661.7 780.415 661.7 781.615Z" fill="white"/>
<path opacity="0.09" d="M604.2 522.015C604.2 523.215 603.2 524.215 602 524.215C600.8 524.215 599.8 523.215 599.8 522.015C599.8 520.815 600.8 519.815 602 519.815C603.2 519.915 604.2 520.815 604.2 522.015Z" fill="white"/>
<path opacity="0.09" d="M643.9 665.115C643.9 666.315 642.9 667.315 641.7 667.315C640.5 667.315 639.5 666.315 639.5 665.115C639.5 663.915 640.5 662.916 641.7 662.916C643 663.016 643.9 663.915 643.9 665.115Z" fill="white"/>
<path opacity="0.09" d="M1139.5 491.115C1142 488.615 1146.1 488.615 1148.6 491.115C1151.1 493.615 1151.1 497.715 1148.6 500.215C1146.1 502.715 1142 502.715 1139.5 500.215C1137 497.715 1137 493.615 1139.5 491.115Z" fill="white"/>
<path opacity="0.09" d="M875.5 519.916C879.09 519.916 882 517.005 882 513.416C882 509.826 879.09 506.916 875.5 506.916C871.91 506.916 869 509.826 869 513.416C869 517.005 871.91 519.916 875.5 519.916Z" fill="white"/>
<path opacity="0.09" d="M1057.7 582.115C1060.2 579.615 1064.3 579.615 1066.8 582.115C1069.3 584.615 1069.3 588.715 1066.8 591.215C1064.3 593.715 1060.2 593.715 1057.7 591.215C1055.1 588.715 1055.1 584.615 1057.7 582.115Z" fill="white"/>
<path opacity="0.09" d="M1098.8 412.815C1100.6 411.015 1103.5 411.015 1105.3 412.815C1107.1 414.615 1107.1 417.515 1105.3 419.315C1103.5 421.115 1100.6 421.115 1098.8 419.315C1097 417.515 1097 414.615 1098.8 412.815Z" fill="white"/>
<path opacity="0.09" d="M1181.7 592.515C1183.5 590.715 1186.4 590.715 1188.2 592.515C1190 594.315 1190 597.215 1188.2 599.015C1186.4 600.815 1183.5 600.815 1181.7 599.015C1179.9 597.215 1179.9 594.315 1181.7 592.515Z" fill="white"/>
<path opacity="0.09" d="M973.1 477.015C974.9 475.215 977.8 475.215 979.6 477.015C981.4 478.815 981.4 481.715 979.6 483.515C977.8 485.315 974.9 485.315 973.1 483.515C971.3 481.715 971.3 478.815 973.1 477.015Z" fill="white"/>
<path opacity="0.09" d="M1170.5 660.615C1172.38 660.615 1173.9 659.093 1173.9 657.215C1173.9 655.338 1172.38 653.815 1170.5 653.815C1168.62 653.815 1167.1 655.338 1167.1 657.215C1167.1 659.093 1168.62 660.615 1170.5 660.615Z" fill="white"/>
<path opacity="0.09" d="M1116 503.615C1116.8 502.815 1118.2 502.815 1119 503.615C1119.8 504.415 1119.8 505.815 1119 506.615C1118.2 507.415 1116.8 507.415 1116 506.615C1115.2 505.815 1115.2 504.415 1116 503.615Z" fill="white"/>
<path opacity="0.09" d="M1190.3 604.215C1191.1 603.415 1192.5 603.415 1193.3 604.215C1194.1 605.015 1194.1 606.415 1193.3 607.215C1192.5 608.015 1191.1 608.015 1190.3 607.215C1189.5 606.415 1189.5 605.115 1190.3 604.215Z" fill="white"/>
<path opacity="0.09" d="M1224.5 567.015C1225.3 566.215 1226.7 566.215 1227.5 567.015C1228.3 567.815 1228.3 569.215 1227.5 570.015C1226.7 570.815 1225.3 570.815 1224.5 570.015C1223.7 569.215 1223.7 567.815 1224.5 567.015Z" fill="white"/>
<path opacity="0.09" d="M1195.9 556.615C1196.7 555.815 1198.1 555.815 1198.9 556.615C1199.7 557.415 1199.7 558.815 1198.9 559.615C1198.1 560.415 1196.7 560.415 1195.9 559.615C1195 558.815 1195 557.415 1195.9 556.615Z" fill="white"/>
<path opacity="0.09" d="M1004.2 588.415C1005 587.615 1006.4 587.615 1007.2 588.415C1008 589.215 1008 590.615 1007.2 591.415C1006.4 592.215 1005 592.215 1004.2 591.415C1003.4 590.615 1003.4 589.215 1004.2 588.415Z" fill="white"/>
<path opacity="0.09" d="M1166.7 577.115C1167.31 577.115 1167.8 576.623 1167.8 576.015C1167.8 575.408 1167.31 574.916 1166.7 574.916C1166.09 574.916 1165.6 575.408 1165.6 576.015C1165.6 576.623 1166.09 577.115 1166.7 577.115Z" fill="white"/>
<path opacity="0.09" d="M1250 680.815C1250.4 680.415 1251.1 680.415 1251.5 680.815C1251.9 681.215 1251.9 681.915 1251.5 682.315C1251.1 682.715 1250.4 682.715 1250 682.315C1249.5 681.915 1249.5 681.215 1250 680.815Z" fill="white"/>
<path opacity="0.09" d="M889 396.916C889.608 396.916 890.1 396.423 890.1 395.815C890.1 395.208 889.608 394.715 889 394.715C888.392 394.715 887.9 395.208 887.9 395.815C887.9 396.423 888.392 396.916 889 396.916Z" fill="white"/>
<path opacity="0.09" d="M1190.5 576.115C1191.11 576.115 1191.6 575.623 1191.6 575.015C1191.6 574.408 1191.11 573.916 1190.5 573.916C1189.89 573.916 1189.4 574.408 1189.4 575.015C1189.4 575.623 1189.89 576.115 1190.5 576.115Z" fill="white"/>
<path opacity="0.09" d="M1159.3 593.115C1160.1 592.315 1161.5 592.315 1162.3 593.115C1163.1 593.915 1163.1 595.315 1162.3 596.115C1161.5 596.915 1160.1 596.915 1159.3 596.115C1158.4 595.415 1158.4 594.015 1159.3 593.115Z" fill="white"/>
<path opacity="0.09" d="M1227.7 664.615C1228.5 663.815 1229.9 663.815 1230.7 664.615C1231.5 665.415 1231.5 666.815 1230.7 667.615C1229.9 668.415 1228.5 668.415 1227.7 667.615C1226.8 666.815 1226.8 665.415 1227.7 664.615Z" fill="white"/>
<path opacity="0.09" d="M800 396.415C800.8 395.615 802.2 395.615 803 396.415C803.8 397.215 803.8 398.615 803 399.415C802.2 400.215 800.8 400.215 800 399.415C799.1 398.615 799.1 397.215 800 396.415Z" fill="white"/>
<path opacity="0.09" d="M1175.6 756.715C1176.4 755.915 1177.8 755.915 1178.6 756.715C1179.4 757.515 1179.4 758.915 1178.6 759.715C1177.8 760.515 1176.4 760.515 1175.6 759.715C1174.7 758.915 1174.7 757.515 1175.6 756.715Z" fill="white"/>
<path opacity="0.09" d="M1089.5 688.115C1090.3 687.315 1091.7 687.315 1092.5 688.115C1093.3 688.915 1093.3 690.315 1092.5 691.115C1091.7 691.915 1090.3 691.915 1089.5 691.115C1088.6 690.315 1088.6 689.015 1089.5 688.115Z" fill="white"/>
<path opacity="0.09" d="M1400.3 619.916C1403.89 619.916 1406.8 617.005 1406.8 613.416C1406.8 609.826 1403.89 606.916 1400.3 606.916C1396.71 606.916 1393.8 609.826 1393.8 613.416C1393.8 617.005 1396.71 619.916 1400.3 619.916Z" fill="white"/>
<path opacity="0.09" d="M1520.4 8.21526C1523.8 7.21526 1527.4 9.1153 1528.4 12.5153C1529.4 15.9153 1527.5 19.5153 1524.1 20.5153C1520.7 21.5153 1517.1 19.6153 1516.1 16.2153C1515 12.9153 1517 9.31526 1520.4 8.21526Z" fill="white"/>
<path opacity="0.09" d="M1526.6 515.315C1529.1 512.815 1533.2 512.815 1535.7 515.315C1538.2 517.815 1538.2 521.916 1535.7 524.416C1533.2 526.916 1529.1 526.916 1526.6 524.416C1524.1 521.916 1524.1 517.815 1526.6 515.315Z" fill="white"/>
<path opacity="0.09" d="M1318.5 710.916C1322.09 710.916 1325 708.005 1325 704.416C1325 700.826 1322.09 697.916 1318.5 697.916C1314.91 697.916 1312 700.826 1312 704.416C1312 708.005 1314.91 710.916 1318.5 710.916Z" fill="white"/>
<path opacity="0.09" d="M1338.5 778.115C1342.09 778.115 1345 775.205 1345 771.615C1345 768.026 1342.09 765.115 1338.5 765.115C1334.91 765.115 1332 768.026 1332 771.615C1332 775.205 1334.91 778.115 1338.5 778.115Z" fill="white"/>
<path opacity="0.09" d="M1355 530.615C1356.8 528.815 1359.7 528.815 1361.5 530.615C1363.3 532.415 1363.3 535.315 1361.5 537.115C1359.7 538.915 1356.8 538.915 1355 537.115C1353.2 535.315 1353.2 532.415 1355 530.615Z" fill="white"/>
<path opacity="0.09" d="M1609.5 412.115C1611.3 410.315 1614.2 410.315 1616 412.115C1617.8 413.915 1617.8 416.815 1616 418.615C1614.2 420.415 1611.3 420.415 1609.5 418.615C1607.7 416.815 1607.7 413.915 1609.5 412.115Z" fill="white"/>
<path opacity="0.09" d="M1572.9 447.615C1574.7 445.815 1577.6 445.815 1579.4 447.615C1581.2 449.415 1581.2 452.315 1579.4 454.115C1577.6 455.915 1574.7 455.915 1572.9 454.115C1571.1 452.315 1571.1 449.415 1572.9 447.615Z" fill="white"/>
<path opacity="0.09" d="M1543.7 79.1154C1545.5 77.3154 1548.4 77.3154 1550.2 79.1154C1552 80.9154 1552 83.8154 1550.2 85.6154C1548.4 87.4154 1545.5 87.4154 1543.7 85.6154C1542 83.8154 1542 80.9154 1543.7 79.1154Z" fill="white"/>
<path opacity="0.09" d="M1229.3 594.815C1231.1 593.015 1234 593.015 1235.8 594.815C1237.6 596.615 1237.6 599.515 1235.8 601.315C1234 603.115 1231.1 603.115 1229.3 601.315C1227.5 599.515 1227.5 596.615 1229.3 594.815Z" fill="white"/>
<path opacity="0.09" d="M1532.6 147.115C1534.48 147.115 1536 145.593 1536 143.715C1536 141.838 1534.48 140.315 1532.6 140.315C1530.72 140.315 1529.2 141.838 1529.2 143.715C1529.2 145.593 1530.72 147.115 1532.6 147.115Z" fill="white"/>
<path opacity="0.09" d="M1559.4 212.815C1561.28 212.815 1562.8 211.293 1562.8 209.416C1562.8 207.538 1561.28 206.015 1559.4 206.015C1557.52 206.015 1556 207.538 1556 209.416C1556 211.293 1557.52 212.815 1559.4 212.815Z" fill="white"/>
<path opacity="0.09" d="M1324.9 758.315C1326.78 758.315 1328.3 756.793 1328.3 754.916C1328.3 753.038 1326.78 751.515 1324.9 751.515C1323.02 751.515 1321.5 753.038 1321.5 754.916C1321.5 756.793 1323.02 758.315 1324.9 758.315Z" fill="white"/>
<path opacity="0.09" d="M1130.1 881.515C1131.98 881.515 1133.5 879.993 1133.5 878.115C1133.5 876.238 1131.98 874.715 1130.1 874.715C1128.22 874.715 1126.7 876.238 1126.7 878.115C1126.7 879.993 1128.22 881.515 1130.1 881.515Z" fill="white"/>
<path opacity="0.09" d="M1372.3 621.315C1373.1 620.515 1374.5 620.515 1375.3 621.315C1376.1 622.115 1376.1 623.515 1375.3 624.315C1374.5 625.115 1373.1 625.115 1372.3 624.315C1371.4 623.615 1371.4 622.215 1372.3 621.315Z" fill="white"/>
<path opacity="0.09" d="M1552.4 90.8153C1553.2 90.0153 1554.6 90.0153 1555.4 90.8153C1556.2 91.6153 1556.2 93.0153 1555.4 93.8153C1554.6 94.6153 1553.2 94.6153 1552.4 93.8153C1551.5 93.0153 1551.5 91.6153 1552.4 90.8153Z" fill="white"/>
<path opacity="0.09" d="M1338.9 749.915C1339.7 749.115 1341.1 749.115 1341.9 749.915C1342.7 750.715 1342.7 752.115 1341.9 752.915C1341.1 753.715 1339.7 753.715 1338.9 752.915C1338.1 752.115 1338.1 750.715 1338.9 749.915Z" fill="white"/>
<path opacity="0.09" d="M1685 71.7152C1685.8 70.9152 1687.2 70.9152 1688 71.7152C1688.8 72.5152 1688.8 73.9152 1688 74.7152C1687.2 75.5152 1685.8 75.5152 1685 74.7152C1684.2 73.9152 1684.2 72.5152 1685 71.7152Z" fill="white"/>
<path opacity="0.09" d="M1750.5 55.7152C1751.3 54.9152 1752.7 54.9152 1753.5 55.7152C1754.3 56.5152 1754.3 57.9152 1753.5 58.7152C1752.7 59.5152 1751.3 59.5152 1750.5 58.7152C1749.7 57.9152 1749.7 56.5152 1750.5 55.7152Z" fill="white"/>
<path opacity="0.09" d="M1586.6 53.5153C1587.4 52.7153 1588.8 52.7153 1589.6 53.5153C1590.4 54.3153 1590.4 55.7153 1589.6 56.5153C1588.8 57.3153 1587.4 57.3153 1586.6 56.5153C1585.7 55.7153 1585.7 54.3153 1586.6 53.5153Z" fill="white"/>
<path opacity="0.09" d="M1021.8 527.115C1022.6 526.315 1024 526.315 1024.8 527.115C1025.6 527.915 1025.6 529.315 1024.8 530.115C1024 530.915 1022.6 530.915 1021.8 530.115C1020.9 529.315 1020.9 527.915 1021.8 527.115Z" fill="white"/>
<path opacity="0.09" d="M1557.9 43.1154C1558.7 42.3154 1560.1 42.3154 1560.9 43.1154C1561.7 43.9154 1561.7 45.3154 1560.9 46.1154C1560.1 46.9154 1558.7 46.9154 1557.9 46.1154C1557.1 45.3154 1557.1 44.0154 1557.9 43.1154Z" fill="white"/>
<path opacity="0.09" d="M1260.5 706.115C1261.3 705.315 1262.7 705.315 1263.5 706.115C1264.3 706.915 1264.3 708.315 1263.5 709.115C1262.7 709.915 1261.3 709.915 1260.5 709.115C1259.6 708.315 1259.6 707.015 1260.5 706.115Z" fill="white"/>
<path opacity="0.09" d="M771.1 511.915C771.9 511.115 773.3 511.115 774.1 511.915C774.9 512.715 774.9 514.115 774.1 514.915C773.3 515.715 771.9 515.715 771.1 514.915C770.2 514.115 770.2 512.715 771.1 511.915Z" fill="white"/>
<path opacity="0.09" d="M1528.7 63.6155C1529.31 63.6155 1529.8 63.1229 1529.8 62.5154C1529.8 61.9079 1529.31 61.4155 1528.7 61.4155C1528.09 61.4155 1527.6 61.9079 1527.6 62.5154C1527.6 63.1229 1528.09 63.6155 1528.7 63.6155Z" fill="white"/>
<path opacity="0.09" d="M1252.1 727.915C1252.5 727.515 1253.2 727.515 1253.6 727.915C1254 728.315 1254 729.015 1253.6 729.415C1253.2 729.815 1252.5 729.815 1252.1 729.415C1251.7 729.015 1251.7 728.415 1252.1 727.915Z" fill="white"/>
<path opacity="0.09" d="M1282.4 710.115C1283.01 710.115 1283.5 709.623 1283.5 709.015C1283.5 708.408 1283.01 707.916 1282.4 707.916C1281.79 707.916 1281.3 708.408 1281.3 709.015C1281.3 709.623 1281.79 710.115 1282.4 710.115Z" fill="white"/>
<path opacity="0.09" d="M1087.8 519.815C1088.41 519.815 1088.9 519.323 1088.9 518.715C1088.9 518.108 1088.41 517.615 1087.8 517.615C1087.19 517.615 1086.7 518.108 1086.7 518.715C1086.7 519.323 1087.19 519.815 1087.8 519.815Z" fill="white"/>
<path opacity="0.09" d="M1612 167.315C1612.4 166.915 1613.1 166.915 1613.5 167.315C1613.9 167.715 1613.9 168.415 1613.5 168.815C1613.1 169.215 1612.4 169.215 1612 168.815C1611.6 168.415 1611.6 167.715 1612 167.315Z" fill="white"/>
<path opacity="0.09" d="M1613.1 242.915C1613.5 242.515 1614.2 242.515 1614.6 242.915C1615 243.315 1615 244.015 1614.6 244.415C1614.2 244.815 1613.5 244.815 1613.1 244.415C1612.7 244.015 1612.7 243.315 1613.1 242.915Z" fill="white"/>
<path opacity="0.09" d="M842.6 777.315C843 776.915 843.7 776.915 844.1 777.315C844.5 777.715 844.5 778.415 844.1 778.815C843.7 779.215 843 779.215 842.6 778.815C842.2 778.415 842.2 777.715 842.6 777.315Z" fill="white"/>
<path opacity="0.09" d="M1572 244.015C1572.4 243.615 1573.1 243.615 1573.5 244.015C1573.9 244.415 1573.9 245.115 1573.5 245.515C1573.1 245.915 1572.4 245.915 1572 245.515C1571.6 245.115 1571.6 244.415 1572 244.015Z" fill="white"/>
<path opacity="0.09" d="M1571 229.815C1571.4 229.415 1572.1 229.415 1572.5 229.815C1572.9 230.215 1572.9 230.915 1572.5 231.315C1572.1 231.715 1571.4 231.715 1571 231.315C1570.5 230.915 1570.5 230.215 1571 229.815Z" fill="white"/>
<path opacity="0.09" d="M1331.3 763.415C1331.7 763.015 1332.4 763.015 1332.8 763.415C1333.2 763.815 1333.2 764.515 1332.8 764.915C1332.4 765.315 1331.7 765.315 1331.3 764.915C1330.9 764.515 1330.9 763.915 1331.3 763.415Z" fill="white"/>
<path opacity="0.09" d="M1552.6 62.6155C1553.21 62.6155 1553.7 62.1229 1553.7 61.5154C1553.7 60.9079 1553.21 60.4155 1552.6 60.4155C1551.99 60.4155 1551.5 60.9079 1551.5 61.5154C1551.5 62.1229 1551.99 62.6155 1552.6 62.6155Z" fill="white"/>
<path opacity="0.09" d="M1324.2 747.415C1324.6 747.015 1325.3 747.015 1325.7 747.415C1326.1 747.815 1326.1 748.515 1325.7 748.915C1325.3 749.315 1324.6 749.315 1324.2 748.915C1323.8 748.515 1323.8 747.815 1324.2 747.415Z" fill="white"/>
<path opacity="0.09" d="M1521.4 79.7152C1522.2 78.9152 1523.6 78.9152 1524.4 79.7152C1525.2 80.5152 1525.2 81.9152 1524.4 82.7152C1523.6 83.5152 1522.2 83.5152 1521.4 82.7152C1520.5 81.9152 1520.5 80.5152 1521.4 79.7152Z" fill="white"/>
<path opacity="0.09" d="M1284.1 745.615C1284.9 744.815 1286.3 744.815 1287.1 745.615C1287.9 746.415 1287.9 747.815 1287.1 748.615C1286.3 749.415 1284.9 749.415 1284.1 748.615C1283.3 747.815 1283.3 746.415 1284.1 745.615Z" fill="white"/>
<path opacity="0.09" d="M1312.7 747.715C1313.5 746.915 1314.9 746.915 1315.7 747.715C1316.5 748.515 1316.5 749.915 1315.7 750.715C1314.9 751.515 1313.5 751.515 1312.7 750.715C1311.8 749.915 1311.8 748.615 1312.7 747.715Z" fill="white"/>
<path opacity="0.09" d="M821.4 569.115C822.2 568.315 823.6 568.315 824.4 569.115C825.2 569.915 825.2 571.315 824.4 572.115C823.6 572.915 822.2 572.915 821.4 572.115C820.5 571.315 820.5 570.015 821.4 569.115Z" fill="white"/>
<path opacity="0.09" d="M857.3 497.515C859.1 495.715 862 495.715 863.8 497.515C865.6 499.315 865.6 502.215 863.8 504.015C862 505.815 859.1 505.815 857.3 504.015C855.5 502.215 855.5 499.315 857.3 497.515Z" fill="white"/>
<path opacity="0.09" d="M900.1 471.915C900.9 471.115 902.3 471.115 903.1 471.915C903.9 472.715 903.9 474.115 903.1 474.915C902.3 475.715 900.9 475.715 900.1 474.915C899.3 474.115 899.3 472.815 900.1 471.915Z" fill="white"/>
<path opacity="0.09" d="M871.5 461.515C872.3 460.715 873.7 460.715 874.5 461.515C875.3 462.315 875.3 463.715 874.5 464.515C873.7 465.315 872.3 465.315 871.5 464.515C870.6 463.715 870.6 462.415 871.5 461.515Z" fill="white"/>
<path opacity="0.09" d="M842.3 482.015C842.908 482.015 843.4 481.523 843.4 480.916C843.4 480.308 842.908 479.815 842.3 479.815C841.692 479.815 841.2 480.308 841.2 480.916C841.2 481.523 841.692 482.015 842.3 482.015Z" fill="white"/>
<path opacity="0.09" d="M866.1 481.115C866.708 481.115 867.2 480.623 867.2 480.015C867.2 479.408 866.708 478.916 866.1 478.916C865.492 478.916 865 479.408 865 480.015C865 480.623 865.492 481.115 866.1 481.115Z" fill="white"/>
<path opacity="0.09" d="M834.9 498.115C835.7 497.315 837.1 497.315 837.9 498.115C838.7 498.915 838.7 500.315 837.9 501.115C837.1 501.915 835.7 501.915 834.9 501.115C834.1 500.315 834.1 498.915 834.9 498.115Z" fill="white"/>
<path opacity="0.09" d="M1589.7 151.115C1590.5 150.315 1591.9 150.315 1592.7 151.115C1593.5 151.915 1593.5 153.315 1592.7 154.115C1591.9 154.915 1590.5 154.915 1589.7 154.115C1588.9 153.315 1588.9 151.915 1589.7 151.115Z" fill="white"/>
<path opacity="0.09" d="M1494.4 116.616C1495.5 116.316 1496.7 116.915 1497.1 118.015C1497.4 119.115 1496.8 120.315 1495.7 120.715C1494.6 121.015 1493.4 120.415 1493 119.315C1492.7 118.115 1493.3 116.916 1494.4 116.616Z" fill="white"/>
<path opacity="0.09" d="M1353.1 265.715C1354.2 265.415 1355.4 266.016 1355.8 267.116C1356.1 268.216 1355.5 269.415 1354.4 269.815C1353.3 270.115 1352.1 269.516 1351.7 268.416C1351.3 267.216 1352 266.015 1353.1 265.715Z" fill="white"/>
<path opacity="0.09" d="M1498.2 228.015C1499 227.215 1500.4 227.215 1501.2 228.015C1502 228.815 1502 230.215 1501.2 231.015C1500.4 231.815 1499 231.815 1498.2 231.015C1497.3 230.215 1497.3 228.815 1498.2 228.015Z" fill="white"/>
<path opacity="0.09" d="M1529.8 113.715C1530.9 113.415 1532.1 114.016 1532.5 115.116C1532.8 116.216 1532.2 117.415 1531.1 117.815C1530 118.115 1528.8 117.516 1528.4 116.416C1528 115.316 1528.7 114.115 1529.8 113.715Z" fill="white"/>
<path opacity="0.09" d="M971.5 752.715C973.3 750.915 976.2 750.915 978 752.715C979.8 754.515 979.8 757.415 978 759.215C976.2 761.015 973.3 761.015 971.5 759.215C969.7 757.415 969.7 754.515 971.5 752.715Z" fill="white"/>
<path opacity="0.09" d="M977.6 613.515C979.4 611.715 982.3 611.715 984.1 613.515C985.9 615.315 985.9 618.215 984.1 620.015C982.3 621.815 979.4 621.815 977.6 620.015C975.9 618.215 975.9 615.315 977.6 613.515Z" fill="white"/>
<path opacity="0.09" d="M960.3 820.815C962.178 820.815 963.7 819.293 963.7 817.416C963.7 815.538 962.178 814.015 960.3 814.015C958.422 814.015 956.9 815.538 956.9 817.416C956.9 819.293 958.422 820.815 960.3 820.815Z" fill="white"/>
<path opacity="0.09" d="M980.1 764.415C980.9 763.615 982.3 763.615 983.1 764.415C983.9 765.215 983.9 766.615 983.1 767.415C982.3 768.215 980.9 768.215 980.1 767.415C979.3 766.615 979.3 765.315 980.1 764.415Z" fill="white"/>
<path opacity="0.09" d="M1015.8 730.916C1017.02 730.916 1018 729.93 1018 728.715C1018 727.5 1017.02 726.515 1015.8 726.515C1014.58 726.515 1013.6 727.5 1013.6 728.715C1013.6 729.93 1014.58 730.916 1015.8 730.916Z" fill="white"/>
<path opacity="0.09" d="M1054.3 598.815C1055.1 598.015 1056.5 598.015 1057.3 598.815C1058.1 599.615 1058.1 601.015 1057.3 601.815C1056.5 602.615 1055.1 602.615 1054.3 601.815C1053.4 601.015 1053.4 599.715 1054.3 598.815Z" fill="white"/>
<path opacity="0.09" d="M985.7 716.815C986.5 716.015 987.9 716.015 988.7 716.815C989.5 717.615 989.5 719.015 988.7 719.815C987.9 720.615 986.5 720.615 985.7 719.815C984.8 719.015 984.8 717.615 985.7 716.815Z" fill="white"/>
<path opacity="0.09" d="M956.5 737.315C957.108 737.315 957.6 736.823 957.6 736.215C957.6 735.608 957.108 735.115 956.5 735.115C955.892 735.115 955.4 735.608 955.4 736.215C955.4 736.823 955.892 737.315 956.5 737.315Z" fill="white"/>
<path opacity="0.09" d="M914.5 824.015C914.9 823.615 915.6 823.615 916 824.015C916.4 824.415 916.4 825.115 916 825.515C915.6 825.915 914.9 825.915 914.5 825.515C914.1 825.115 914.1 824.515 914.5 824.015Z" fill="white"/>
<path opacity="0.09" d="M1039.8 841.015C1040.2 840.615 1040.9 840.615 1041.3 841.015C1041.7 841.415 1041.7 842.115 1041.3 842.515C1040.9 842.915 1040.2 842.915 1039.8 842.515C1039.3 842.115 1039.3 841.415 1039.8 841.015C1039.7 841.015 1039.7 841.015 1039.8 841.015Z" fill="white"/>
<path opacity="0.09" d="M980.3 736.315C980.908 736.315 981.4 735.823 981.4 735.215C981.4 734.608 980.908 734.115 980.3 734.115C979.692 734.115 979.2 734.608 979.2 735.215C979.2 735.823 979.692 736.315 980.3 736.315Z" fill="white"/>
<path opacity="0.09" d="M949.1 753.415C949.9 752.615 951.3 752.615 952.1 753.415C952.9 754.215 952.9 755.615 952.1 756.415C951.3 757.215 949.9 757.215 949.1 756.415C948.2 755.615 948.2 754.215 949.1 753.415Z" fill="white"/>
<path opacity="0.09" d="M802.1 752.015C802.9 751.215 804.3 751.215 805.1 752.015C805.9 752.815 805.9 754.215 805.1 755.015C804.3 755.815 802.9 755.815 802.1 755.015C801.3 754.215 801.3 752.915 802.1 752.015Z" fill="white"/>
<path opacity="0.09" d="M1017.5 824.815C1018.3 824.015 1019.7 824.015 1020.5 824.815C1021.3 825.615 1021.3 827.015 1020.5 827.815C1019.7 828.615 1018.3 828.615 1017.5 827.815C1016.6 827.015 1016.6 825.615 1017.5 824.815Z" fill="white"/>
<path opacity="0.09" d="M1537.7 243.215C1538.5 242.415 1539.9 242.415 1540.7 243.215C1541.5 244.015 1541.5 245.415 1540.7 246.215C1539.9 247.015 1538.5 247.015 1537.7 246.215C1536.8 245.415 1536.8 244.015 1537.7 243.215Z" fill="white"/>
<path opacity="0.09" d="M1568 340.415C1568.8 339.615 1570.2 339.615 1571 340.415C1571.8 341.215 1571.8 342.615 1571 343.415C1570.2 344.215 1568.8 344.215 1568 343.415C1567.2 342.615 1567.2 341.215 1568 340.415Z" fill="white"/>
<path opacity="0.09" d="M1345.7 805.915C1346.5 805.115 1347.9 805.115 1348.7 805.915C1349.5 806.715 1349.5 808.115 1348.7 808.915C1347.9 809.715 1346.5 809.715 1345.7 808.915C1344.9 808.115 1344.9 806.715 1345.7 805.915Z" fill="white"/>
<path opacity="0.09" d="M814.4 98.4155C815 98.3155 815.5 98.8154 815.5 99.3154C815.5 99.8154 815.1 100.415 814.6 100.415C814 100.515 813.5 100.015 813.5 99.5153C813.4 98.9153 813.8 98.4155 814.4 98.4155Z" fill="white"/>
<path opacity="0.09" d="M850.9 151.416C854.3 151.016 857.4 153.516 857.8 156.916C858.2 160.316 855.7 163.415 852.3 163.815C848.9 164.215 845.8 161.715 845.4 158.315C845 154.815 847.5 151.816 850.9 151.416Z" fill="white"/>
<path opacity="0.09" d="M825.3 214.015C828.7 213.615 831.8 216.115 832.2 219.515C832.6 222.915 830.1 226.016 826.7 226.416C823.3 226.816 820.2 224.316 819.8 220.916C819.4 217.416 821.9 214.315 825.3 214.015Z" fill="white"/>
<path opacity="0.09" d="M825.5 196.215C827.3 196.015 828.9 197.316 829.1 199.116C829.3 200.916 828 202.515 826.2 202.715C824.4 202.915 822.8 201.615 822.6 199.815C822.5 198.015 823.8 196.415 825.5 196.215Z" fill="white"/>
<path opacity="0.09" d="M839.4 204.115C840.5 204.015 841.6 204.815 841.7 205.915C841.8 207.015 841 208.115 839.9 208.215C838.8 208.315 837.7 207.515 837.6 206.415C837.4 205.315 838.3 204.215 839.4 204.115Z" fill="white"/>
<path opacity="0.09" d="M807 123.815C808.1 123.715 809.2 124.515 809.3 125.615C809.4 126.715 808.6 127.815 807.5 127.915C806.4 128.015 805.3 127.215 805.2 126.115C805 124.915 805.8 123.915 807 123.815Z" fill="white"/>
<path opacity="0.09" d="M787.5 135.115C788.1 135.015 788.6 135.515 788.6 136.015C788.6 136.515 788.2 137.115 787.7 137.115C787.1 137.215 786.6 136.715 786.6 136.215C786.5 135.615 786.9 135.115 787.5 135.115Z" fill="white"/>
<path opacity="0.09" d="M821.6 138.115C822.2 138.015 822.7 138.415 822.7 139.015C822.8 139.615 822.4 140.115 821.8 140.115C821.2 140.215 820.7 139.815 820.7 139.215C820.6 138.715 821 138.215 821.6 138.115Z" fill="white"/>
<path opacity="0.09" d="M825.5 209.715C826.1 209.615 826.6 210.015 826.6 210.615C826.7 211.215 826.3 211.715 825.7 211.715C825.1 211.715 824.6 211.415 824.6 210.815C824.5 210.215 824.9 209.715 825.5 209.715Z" fill="white"/>
<path opacity="0.09" d="M829.8 193.315C830.4 193.215 830.9 193.715 830.9 194.215C830.9 194.715 830.5 195.315 830 195.315C829.4 195.415 828.9 194.915 828.9 194.415C828.8 193.915 829.3 193.415 829.8 193.315Z" fill="white"/>
<path opacity="0.09" d="M800.8 167.715C801.9 167.615 803 168.415 803.1 169.515C803.2 170.615 802.4 171.715 801.3 171.815C800.2 171.915 799.1 171.115 799 170.015C798.9 168.815 799.7 167.815 800.8 167.715Z" fill="white"/>
<path opacity="0.09" d="M821 186.615C822.1 186.515 823.2 187.315 823.3 188.415C823.4 189.515 822.6 190.615 821.5 190.715C820.4 190.815 819.3 190.015 819.2 188.915C819 187.715 819.8 186.715 821 186.615Z" fill="white"/>
<path opacity="0.09" d="M810.6 250.315C811.7 250.215 812.8 251.015 812.9 252.115C813 253.215 812.2 254.315 811.1 254.415C810 254.515 808.9 253.715 808.8 252.615C808.6 251.415 809.5 250.415 810.6 250.315Z" fill="white"/>
<path opacity="0.09" d="M1932.7 548.615C1933.5 548.515 1934.2 549.115 1934.3 549.915C1934.4 550.715 1933.8 551.415 1933 551.515C1932.2 551.615 1931.5 551.015 1931.4 550.215C1931.3 549.415 1931.9 548.715 1932.7 548.615Z" fill="white"/>
<path opacity="0.09" d="M1982.9 621.715C1987.6 621.215 1991.8 624.615 1992.4 629.315C1993 634.015 1989.5 638.215 1984.8 638.815C1980.1 639.315 1975.9 635.915 1975.3 631.215C1974.8 626.415 1978.2 622.215 1982.9 621.715Z" fill="white"/>
<path opacity="0.09" d="M1947.6 707.915C1952.3 707.415 1956.5 710.815 1957.1 715.515C1957.7 720.215 1954.2 724.415 1949.5 725.015C1944.8 725.515 1940.6 722.115 1940 717.415C1939.5 712.615 1942.9 708.415 1947.6 707.915Z" fill="white"/>
<path opacity="0.09" d="M1948 683.415C1950.4 683.115 1952.6 684.915 1952.9 687.415C1953.2 689.815 1951.4 692.015 1948.9 692.315C1946.5 692.615 1944.3 690.815 1944 688.315C1943.8 685.815 1945.5 683.615 1948 683.415Z" fill="white"/>
<path opacity="0.09" d="M1967.1 694.316C1968.7 694.116 1970.1 695.316 1970.3 696.816C1970.5 698.316 1969.3 699.815 1967.8 700.015C1966.2 700.215 1964.8 699.015 1964.6 697.515C1964.4 695.915 1965.5 694.416 1967.1 694.316Z" fill="white"/>
<path opacity="0.09" d="M1922.4 583.616C1924 583.416 1925.4 584.616 1925.5 586.116C1925.7 587.716 1924.5 589.115 1923 589.215C1921.4 589.415 1920 588.215 1919.9 586.715C1919.7 585.215 1920.8 583.816 1922.4 583.616Z" fill="white"/>
<path opacity="0.09" d="M1895.6 599.215C1896.4 599.115 1897.1 599.715 1897.2 600.515C1897.3 601.315 1896.7 602.015 1895.9 602.115C1895.1 602.215 1894.4 601.615 1894.3 600.815C1894.2 600.015 1894.8 599.315 1895.6 599.215Z" fill="white"/>
<path opacity="0.09" d="M1942.6 603.415C1943.4 603.315 1944.1 603.915 1944.2 604.715C1944.3 605.515 1943.7 606.215 1942.9 606.315C1942.1 606.415 1941.4 605.815 1941.3 605.015C1941.2 604.215 1941.8 603.515 1942.6 603.415Z" fill="white"/>
<path opacity="0.09" d="M1947.9 701.915C1948.7 701.815 1949.4 702.415 1949.5 703.215C1949.6 704.015 1949 704.715 1948.2 704.815C1947.4 704.915 1946.7 704.315 1946.6 703.515C1946.5 702.715 1947.1 702.015 1947.9 701.915Z" fill="white"/>
<path opacity="0.09" d="M1953.9 679.415C1954.7 679.315 1955.4 679.915 1955.5 680.715C1955.6 681.515 1955 682.215 1954.2 682.315C1953.4 682.415 1952.7 681.815 1952.6 681.015C1952.5 680.215 1953.1 679.515 1953.9 679.415Z" fill="white"/>
<path opacity="0.09" d="M1914 644.116C1915.6 643.916 1917 645.116 1917.2 646.616C1917.4 648.116 1916.2 649.616 1914.7 649.816C1913.1 650.016 1911.7 648.816 1911.5 647.316C1911.3 645.716 1912.4 644.316 1914 644.116Z" fill="white"/>
<path opacity="0.09" d="M1941.7 670.116C1943.3 669.916 1944.7 671.116 1944.9 672.616C1945.1 674.216 1943.9 675.616 1942.4 675.816C1940.8 676.016 1939.4 674.816 1939.2 673.316C1939 671.716 1940.1 670.316 1941.7 670.116Z" fill="white"/>
<path opacity="0.09" d="M1927.4 757.916C1929 757.716 1930.4 758.916 1930.6 760.416C1930.8 762.016 1929.6 763.416 1928.1 763.616C1926.5 763.816 1925.1 762.616 1924.9 761.116C1924.7 759.516 1925.8 758.116 1927.4 757.916Z" fill="white"/>
<path opacity="0.09" d="M1471.8 121.115C1470.6 123.315 1467.8 124.215 1465.6 123.015C1463.4 121.815 1462.5 119.015 1463.7 116.815C1464.9 114.615 1467.7 113.716 1469.9 114.916C1472.2 116.116 1473 118.915 1471.8 121.115Z" fill="white"/>
<path opacity="0.09" d="M1466.9 57.6155C1466 59.2155 1464 59.8154 1462.4 59.0154C1460.8 58.2154 1460.2 56.1154 1461 54.5154C1461.9 52.9154 1463.9 52.3155 1465.5 53.1155C1467.1 53.9155 1467.7 56.0155 1466.9 57.6155Z" fill="white"/>
<path opacity="0.09" d="M1460.2 112.415C1459.6 113.415 1458.3 113.815 1457.3 113.315C1456.3 112.715 1455.9 111.415 1456.4 110.415C1457 109.415 1458.3 109.015 1459.3 109.515C1460.4 110.115 1460.8 111.415 1460.2 112.415Z" fill="white"/>
<path opacity="0.09" d="M1438.2 158.015C1437.6 159.015 1436.3 159.415 1435.3 158.915C1434.3 158.415 1433.9 157.015 1434.4 156.015C1435 155.015 1436.3 154.615 1437.3 155.115C1438.3 155.615 1438.7 156.915 1438.2 158.015Z" fill="white"/>
<path opacity="0.09" d="M1468.6 159.715C1468 160.715 1466.7 161.115 1465.7 160.615C1464.7 160.015 1464.3 158.715 1464.8 157.715C1465.4 156.715 1466.7 156.315 1467.7 156.815C1468.8 157.315 1469.2 158.615 1468.6 159.715Z" fill="white"/>
<path opacity="0.09" d="M1413.4 140.715C1412.8 141.715 1411.5 142.115 1410.5 141.615C1409.5 141.015 1409.1 139.715 1409.6 138.715C1410.2 137.715 1411.5 137.315 1412.5 137.815C1413.6 138.415 1414 139.715 1413.4 140.715Z" fill="white"/>
<path opacity="0.09" d="M1491.9 133.215C1491.6 133.715 1491 133.916 1490.4 133.616C1489.9 133.316 1489.7 132.716 1490 132.116C1490.3 131.616 1490.9 131.415 1491.5 131.715C1492 132.015 1492.2 132.615 1491.9 133.215Z" fill="white"/>
<path opacity="0.09" d="M1469.4 141.015C1469.1 141.515 1468.5 141.716 1467.9 141.416C1467.4 141.116 1467.2 140.516 1467.5 139.916C1467.8 139.416 1468.4 139.215 1469 139.515C1469.5 139.815 1469.6 140.415 1469.4 141.015Z" fill="white"/>
<path opacity="0.09" d="M1493.1 114.115C1492.5 115.115 1491.2 115.515 1490.2 115.015C1489.2 114.415 1488.8 113.115 1489.3 112.115C1489.9 111.115 1491.2 110.715 1492.2 111.215C1493.3 111.815 1493.7 113.115 1493.1 114.115Z" fill="white"/>
<path opacity="0.09" d="M1679.5 325.115C1679.5 326.315 1678.5 327.315 1677.3 327.315C1676.1 327.315 1675.1 326.315 1675.1 325.115C1675.1 323.915 1676.1 322.916 1677.3 322.916C1678.6 322.916 1679.5 323.915 1679.5 325.115Z" fill="white"/>
<path opacity="0.09" d="M1532.6 3.11537C1532 4.11537 1530.7 4.51528 1529.7 4.01528C1528.7 3.41528 1528.3 2.11537 1528.8 1.11537C1529.4 0.115373 1530.7 -0.284774 1531.7 0.215226C1532.8 0.715226 1533.2 2.01537 1532.6 3.11537Z" fill="white"/>
<path opacity="0.09" d="M1146.8 212.315C1149.3 209.815 1153.4 209.815 1155.9 212.315C1158.4 214.815 1158.4 218.916 1155.9 221.416C1153.4 223.916 1149.3 223.916 1146.8 221.416C1144.3 218.916 1144.3 214.815 1146.8 212.315Z" fill="white"/>
<path opacity="0.09" d="M1462 81.9155C1464.5 79.4155 1468.6 79.4155 1471.1 81.9155C1473.6 84.4155 1473.6 88.5154 1471.1 91.0154C1468.6 93.5154 1464.5 93.5154 1462 91.0154C1459.5 88.5154 1459.5 84.4155 1462 81.9155Z" fill="white"/>
<path opacity="0.09" d="M1277.7 118.715C1280.2 116.215 1284.3 116.215 1286.8 118.715C1289.3 121.215 1289.3 125.315 1286.8 127.815C1284.3 130.315 1280.2 130.315 1277.7 127.815C1275.2 125.315 1275.2 121.215 1277.7 118.715Z" fill="white"/>
<path opacity="0.09" d="M1089.6 381.515C1093.19 381.515 1096.1 378.605 1096.1 375.015C1096.1 371.426 1093.19 368.515 1089.6 368.515C1086.01 368.515 1083.1 371.426 1083.1 375.015C1083.1 378.605 1086.01 381.515 1089.6 381.515Z" fill="white"/>
<path opacity="0.09" d="M1106.1 134.015C1107.9 132.215 1110.8 132.215 1112.6 134.015C1114.4 135.815 1114.4 138.715 1112.6 140.515C1110.8 142.315 1107.9 142.315 1106.1 140.515C1104.3 138.615 1104.3 135.815 1106.1 134.015Z" fill="white"/>
<path opacity="0.09" d="M1360.6 15.5153C1362.4 13.7153 1365.3 13.7153 1367.1 15.5153C1368.9 17.3153 1368.9 20.2153 1367.1 22.0153C1365.3 23.8153 1362.4 23.8153 1360.6 22.0153C1358.8 20.1153 1358.8 17.3153 1360.6 15.5153C1360.5 15.5153 1360.5 15.5153 1360.6 15.5153Z" fill="white"/>
<path opacity="0.09" d="M1324 51.0153C1325.8 49.2153 1328.7 49.2153 1330.5 51.0153C1332.3 52.8153 1332.3 55.7153 1330.5 57.5153C1328.7 59.3153 1325.8 59.3153 1324 57.5153C1322.2 55.7153 1322.2 52.8153 1324 51.0153Z" fill="white"/>
<path opacity="0.09" d="M1189 313.715C1190.8 311.915 1193.7 311.915 1195.5 313.715C1197.3 315.515 1197.3 318.415 1195.5 320.215C1193.7 322.015 1190.8 322.015 1189 320.215C1187.2 318.415 1187.2 315.515 1189 313.715Z" fill="white"/>
<path opacity="0.09" d="M1175.5 376.015C1176.8 374.715 1178.9 374.715 1180.2 376.015C1181.5 377.315 1181.5 379.415 1180.2 380.715C1178.9 382.015 1176.8 382.015 1175.5 380.715C1174.2 379.415 1174.2 377.315 1175.5 376.015Z" fill="white"/>
<path opacity="0.09" d="M1204.7 447.416C1206.58 447.416 1208.1 445.893 1208.1 444.015C1208.1 442.138 1206.58 440.615 1204.7 440.615C1202.82 440.615 1201.3 442.138 1201.3 444.015C1201.3 445.893 1202.82 447.416 1204.7 447.416Z" fill="white"/>
<path opacity="0.09" d="M1124.9 228.515C1126.12 228.515 1127.1 227.53 1127.1 226.315C1127.1 225.1 1126.12 224.115 1124.9 224.115C1123.68 224.115 1122.7 225.1 1122.7 226.315C1122.7 227.53 1123.68 228.515 1124.9 228.515Z" fill="white"/>
<path opacity="0.09" d="M1197.6 325.415C1198.4 324.615 1199.8 324.615 1200.6 325.415C1201.4 326.215 1201.4 327.615 1200.6 328.415C1199.8 329.215 1198.4 329.215 1197.6 328.415C1196.8 327.615 1196.8 326.215 1197.6 325.415Z" fill="white"/>
<path opacity="0.09" d="M1090 353.315C1090.8 352.515 1092.2 352.515 1093 353.315C1093.8 354.115 1093.8 355.515 1093 356.315C1092.2 357.115 1090.8 357.115 1090 356.315C1089.2 355.515 1089.2 354.115 1090 353.315Z" fill="white"/>
<path opacity="0.09" d="M1330.3 306.315C1331.1 305.515 1332.5 305.515 1333.3 306.315C1334.1 307.115 1334.1 308.515 1333.3 309.315C1332.5 310.115 1331.1 310.115 1330.3 309.315C1329.4 308.515 1329.4 307.115 1330.3 306.315Z" fill="white"/>
<path opacity="0.09" d="M1395.7 290.315C1396.5 289.515 1397.9 289.515 1398.7 290.315C1399.5 291.115 1399.5 292.515 1398.7 293.315C1397.9 294.115 1396.5 294.115 1395.7 293.315C1394.9 292.515 1394.9 291.115 1395.7 290.315Z" fill="white"/>
<path opacity="0.09" d="M1231.8 288.115C1232.6 287.315 1234 287.315 1234.8 288.115C1235.6 288.915 1235.6 290.315 1234.8 291.115C1234 291.915 1232.6 291.915 1231.8 291.115C1231 290.315 1231 289.015 1231.8 288.115Z" fill="white"/>
<path opacity="0.09" d="M1515.4 21.5153C1516.2 20.7153 1517.6 20.7153 1518.4 21.5153C1519.2 22.3153 1519.2 23.7153 1518.4 24.5153C1517.6 25.3153 1516.2 25.3153 1515.4 24.5153C1514.5 23.7153 1514.5 22.3153 1515.4 21.5153Z" fill="white"/>
<path opacity="0.09" d="M1203.2 277.715C1204 276.915 1205.4 276.915 1206.2 277.715C1207 278.515 1207 279.915 1206.2 280.715C1205.4 281.515 1204 281.515 1203.2 280.715C1202.3 279.915 1202.3 278.615 1203.2 277.715Z" fill="white"/>
<path opacity="0.09" d="M1173.2 296.415C1173.6 296.015 1174.3 296.015 1174.7 296.415C1175.1 296.815 1175.1 297.515 1174.7 297.915C1174.3 298.315 1173.6 298.315 1173.2 297.915C1172.8 297.515 1172.8 296.815 1173.2 296.415Z" fill="white"/>
<path opacity="0.09" d="M1257.3 401.915C1257.7 401.515 1258.4 401.515 1258.8 401.915C1259.2 402.315 1259.2 403.015 1258.8 403.415C1258.4 403.815 1257.7 403.815 1257.3 403.415C1256.9 403.015 1256.9 402.315 1257.3 401.915Z" fill="white"/>
<path opacity="0.09" d="M1259.1 479.416C1259.71 479.416 1260.2 478.923 1260.2 478.315C1260.2 477.708 1259.71 477.215 1259.1 477.215C1258.49 477.215 1258 477.708 1258 478.315C1258 478.923 1258.49 479.416 1259.1 479.416Z" fill="white"/>
<path opacity="0.09" d="M1218 480.416C1218.61 480.416 1219.1 479.923 1219.1 479.315C1219.1 478.708 1218.61 478.215 1218 478.215C1217.39 478.215 1216.9 478.708 1216.9 479.315C1216.9 479.923 1217.39 480.416 1218 480.416Z" fill="white"/>
<path opacity="0.09" d="M1217 466.315C1217.61 466.315 1218.1 465.823 1218.1 465.215C1218.1 464.608 1217.61 464.115 1217 464.115C1216.39 464.115 1215.9 464.608 1215.9 465.215C1215.9 465.823 1216.39 466.315 1217 466.315Z" fill="white"/>
<path opacity="0.09" d="M1197.1 295.415C1197.5 295.015 1198.2 295.015 1198.6 295.415C1199 295.815 1199 296.515 1198.6 296.915C1198.2 297.315 1197.5 297.315 1197.1 296.915C1196.6 296.515 1196.6 295.815 1197.1 295.415Z" fill="white"/>
<path opacity="0.09" d="M1166.6 314.315C1167.4 313.515 1168.8 313.515 1169.6 314.315C1170.4 315.115 1170.4 316.515 1169.6 317.315C1168.8 318.115 1167.4 318.115 1166.6 317.315C1165.8 316.515 1165.8 315.215 1166.6 314.315Z" fill="white"/>
<path opacity="0.09" d="M1235 385.715C1235.8 384.915 1237.2 384.915 1238 385.715C1238.8 386.515 1238.8 387.915 1238 388.715C1237.2 389.515 1235.8 389.515 1235 388.715C1234.1 387.915 1234.1 386.615 1235 385.715Z" fill="white"/>
<path opacity="0.09" d="M1490.5 189.615C1491.3 188.815 1492.7 188.815 1493.5 189.615C1494.3 190.415 1494.3 191.815 1493.5 192.615C1492.7 193.415 1491.3 193.415 1490.5 192.615C1489.6 191.815 1489.6 190.415 1490.5 189.615Z" fill="white"/>
<path opacity="0.09" d="M1436.6 387.915C1437.4 387.115 1438.8 387.115 1439.6 387.915C1440.4 388.715 1440.4 390.115 1439.6 390.915C1438.8 391.715 1437.4 391.715 1436.6 390.915C1435.8 390.115 1435.8 388.715 1436.6 387.915Z" fill="white"/>
<path opacity="0.09" d="M1143.4 462.615C1144.2 461.815 1145.6 461.815 1146.4 462.615C1147.2 463.415 1147.2 464.815 1146.4 465.615C1145.6 466.415 1144.2 466.415 1143.4 465.615C1142.6 464.815 1142.6 463.415 1143.4 462.615Z" fill="white"/>
<path opacity="0.09" d="M1520.3 170.315C1521.1 169.515 1522.5 169.515 1523.3 170.315C1524.1 171.115 1524.1 172.515 1523.3 173.315C1522.5 174.115 1521.1 174.115 1520.3 173.315C1519.4 172.615 1519.4 171.215 1520.3 170.315C1520.3 170.415 1520.3 170.415 1520.3 170.315Z" fill="white"/>
<path opacity="0.09" d="M1182.9 477.815C1183.7 477.015 1185.1 477.015 1185.9 477.815C1186.7 478.615 1186.7 480.015 1185.9 480.815C1185.1 481.615 1183.7 481.615 1182.9 480.815C1182.1 480.015 1182.1 478.715 1182.9 477.815Z" fill="white"/>
<path opacity="0.09" d="M1213.3 575.015C1214.1 574.215 1215.5 574.215 1216.3 575.015C1217.1 575.815 1217.1 577.215 1216.3 578.015C1215.5 578.815 1214.1 578.815 1213.3 578.015C1212.5 577.215 1212.5 575.815 1213.3 575.015Z" fill="white"/>
<path opacity="0.09" d="M1096.8 409.315C1097.6 408.515 1099 408.515 1099.8 409.315C1100.6 410.115 1100.6 411.515 1099.8 412.315C1099 413.115 1097.6 413.115 1096.8 412.315C1096 411.515 1096 410.115 1096.8 409.315Z" fill="white"/>
</g>
</g>
</svg>
